<?xml version="1.0" encoding="utf-8"?>
<!-- Generator: Adobe Illustrator 23.0.1, SVG Export Plug-In . SVG Version: 6.00 Build 0)  -->
<svg version="1.1" id="Layer_5" xmlns="http://www.w3.org/2000/svg" xmlns:xlink="http://www.w3.org/1999/xlink" x="0px" y="0px"
	 viewBox="0 0 3084.41 1081.26" style="enable-background:new 0 0 3084.41 1081.26;" xml:space="preserve">
<style type="text/css">
	.st0{clip-path:url(#SVGID_2_);}
	.st1{fill:#F4487B;}
	.st2{fill:#6A87EA;}
	.st3{fill:#0930B4;}
	.st4{fill:#FDA3BE;}
</style>
<title>backgrouns2</title>
<g>
	<defs>
		<rect id="SVGID_1_" y="1.45" width="3090" height="1081.5"/>
	</defs>
	<clipPath id="SVGID_2_">
		<use xlink:href="#SVGID_1_"  style="overflow:visible;"/>
	</clipPath>
	<g class="st0">
		<rect y="3.14" class="st1" width="3086.23" height="1078.12"/>
		<path class="st2" d="M1969-1081.68c236.06,27.4,573.59,55.77,755,213.93s206.59,445.65,115.11,698.05
			C2748.16,82.7,2541,299.51,2292.34,387.96c-248.16,88.94-537.31,50-800.71,16.83c-263.4-32.69-500-60.09-732.89-153.36
			C526.36,157.7,298.19-2.4,275.06-193.74C251.92-384.6,433.83-607.18,559-811.02c125.65-203.84,194.52-389.41,336-445.17
			c142-55.77,355.93,18.75,530.47,69.23C1599.4-1136.49,1732.94-1109.56,1969-1081.68z"/>
		<path class="st3" d="M2874.14,471.7c153.51-181.4,364-446.78,596.13-510.26s485.52,74.67,645.05,290.58
			c159.83,215.48,225.7,508,161.69,764.08c-63.33,255.89-255.84,475.13-429.29,676.11c-173.06,201.25-326.86,383.09-533.47,525.41
			c-206.72,141.62-466.36,243-638.51,156.33c-171.74-86.4-256.39-361.12-356.86-578.17c-100.18-217.49-216.58-377.58-184.73-526.23
			c32.15-149.09,212.67-286,351.35-403.43C2623.88,749.11,2720.23,652.81,2874.14,471.7z"/>
		<path class="st4" d="M1221.48,1135.17c190.5,142.06,468.32,335.83,546,563.62s-44.67,489.19-250.36,661.7
			c-205.24,172.77-493.18,256.51-752.69,208.36c-259.3-47.46-490-226.14-701.23-386.9c-211.51-160.35-402.47-302.68-557.22-500.15
			c-154.06-197.62-271.22-450.53-195.3-627.68C-613.64,877.39-344.65,776-134.18,662.38c210.91-113.37,363.54-239.4,513.87-216.74
			c150.73,22.92,298.51,194.68,424.22,325.87C929.17,902.44,1031.21,992.7,1221.48,1135.17z"/>
	</g>
</g>
</svg>
