<?xml version="1.0" encoding="utf-8"?>
<!-- Generator: Adobe Illustrator 23.0.1, SVG Export Plug-In . SVG Version: 6.00 Build 0)  -->
<svg version="1.1" id="Layer_1" xmlns="http://www.w3.org/2000/svg" xmlns:xlink="http://www.w3.org/1999/xlink" x="0px" y="0px"
	 viewBox="0 0 100 100" style="enable-background:new 0 0 100 100;" xml:space="preserve">
<style type="text/css">
	.st0{fill:#09134B;}
</style>
<path class="st0" d="M8.3,50c0,11.1,4.4,21.6,12.2,29.5c7.9,7.8,18.4,12.2,29.5,12.2s21.6-4.4,29.5-12.2
	c7.8-7.8,12.2-18.4,12.2-29.5s-4.4-21.6-12.2-29.5C71.7,12.7,61.1,8.3,50,8.3s-21.6,4.4-29.5,12.2C12.7,28.4,8.3,38.9,8.3,50z
	 M52.9,33.5l17.8,17.7c0.8,0.8,1.2,1.8,1.2,2.9c0,1-0.4,2-1,2.8c-0.8,0.8-1.9,1.3-3.1,1.3s-2.3-0.5-3.1-1.3L51.6,43.8
	c-0.8-0.8-2.1-0.8-2.9,0L35.3,57c-1.4,1.4-3.6,1.7-5.3,0.6c-1.1-0.7-1.8-1.8-1.9-3.1c-0.1-1.2,0.3-2.5,1.2-3.4L47,33.4
	c0.8-0.8,1.8-1.2,2.9-1.2S52.2,32.7,52.9,33.5L52.9,33.5z"/>
</svg>
