<?xml version="1.0" encoding="utf-8"?>
<!-- Generator: Adobe Illustrator 23.0.1, SVG Export Plug-In . SVG Version: 6.00 Build 0)  -->
<svg version="1.1" id="Capa_1" xmlns="http://www.w3.org/2000/svg" xmlns:xlink="http://www.w3.org/1999/xlink" x="0px" y="0px"
	 viewBox="0 0 144.8 144.8" style="enable-background:new 0 0 144.8 144.8;" xml:space="preserve">
<style type="text/css">
	.st0{fill:#4B496D;}
	.st1{clip-path:url(#SVGID_2_);}
	.st2{fill:#F1C9A5;}
	.st3{fill:#E4B692;}
	.st4{opacity:0.1;fill:#DDAC8C;enable-background:new    ;}
	.st5{fill:#0D313D;}
	.st6{fill:#F1F2F2;}
	.st7{fill:#2B5770;}
	.st8{fill:#FFFFFF;}
	.st9{fill:#262421;}
</style>
<g>
	<circle class="st0" cx="72.4" cy="72.4" r="72.4"/>
	<g>
		<g>
			<defs>
				<circle id="SVGID_1_" cx="72.4" cy="72.4" r="72.4"/>
			</defs>
			<clipPath id="SVGID_2_">
				<use xlink:href="#SVGID_1_"  style="overflow:visible;"/>
			</clipPath>
			<g class="st1">
				<g>
					<path class="st2" d="M107.1,116.9c-4.7-8.8-34.7-14.4-34.7-14.4s-30,5.5-34.7,14.4c-3.4,12.3-6.3,27.8-6.3,27.8h41h41
						C113.4,144.8,111.4,128.1,107.1,116.9z"/>
					<path class="st3" d="M72.4,102.6c0,0,30,5.5,34.7,14.4c4.4,11.1,6.3,27.8,6.3,27.8h-41V102.6z"/>
					<rect x="64.2" y="84.6" class="st2" width="16.3" height="27.3"/>
					<rect x="72.4" y="84.6" class="st3" width="8.2" height="27.3"/>
					<path class="st4" d="M64.2,97.3c1.5,4.2,7.4,6.6,11.8,6.6c1.6,0,3.1-0.3,4.6-0.7V84.6H64.2V97.3z"/>
					<path class="st2" d="M93.4,67.4c0-17.1-9.4-26.8-21-26.8s-21,9.7-21,26.8c0,23,9.4,30.9,21,30.9C84,98.3,93.4,89.4,93.4,67.4z"
						/>
					<path class="st3" d="M90.2,79.2c-3.8-0.4-6.4-4.5-5.7-9.2c0.6-4.7,4.2-8.1,8.1-7.7c3.8,0.4,6.4,4.5,5.7,9.2
						C97.6,76.1,94,79.6,90.2,79.2z"/>
					<path class="st2" d="M46.7,71.5c-0.6-4.7,1.9-8.8,5.7-9.2c3.8-0.4,7.4,3.1,8.1,7.7c0.6,4.7-1.9,8.8-5.7,9.2
						C50.9,79.6,47.3,76.1,46.7,71.5z"/>
					<path class="st3" d="M93.4,67.4c0-17.1-9.4-26.8-21-26.8v57.7C84,98.3,93.4,89.4,93.4,67.4z"/>
				</g>
				<path class="st5" d="M107.1,116.9c-2.7-5.2-14.1-9.2-23.1-11.7l-11.6,39.5l-11.6-39.5c-9,2.5-20.3,6.5-23.1,11.7
					c-3.4,12.3-6.3,27.8-6.3,27.8h41h41C113.4,144.8,111.4,128.1,107.1,116.9z"/>
				<polygon class="st6" points="60.4,105.3 72.4,144.8 84,105.3 72.4,118.5 				"/>
				<polygon class="st7" points="72.4,144.8 90.1,125 84,122.7 94.6,108.3 84.3,105.3 				"/>
				<polygon class="st7" points="72.4,144.8 54.7,125 60.7,122.7 50.2,108.3 60.4,105.3 				"/>
				<path class="st8" d="M57.4,121.3l9.1-8.4l5.9,5.6l-8.2-14.2l-5,0.4C58.9,110.3,57.4,121.3,57.4,121.3z"/>
				<path class="st8" d="M87.4,121.3l-9.1-8.4l-5.9,5.6l8.2-14.2l5,0.4C85.9,110.3,87.4,121.3,87.4,121.3z"/>
				<path class="st9" d="M95.4,63.5c0,0-3.7-2.8-5.3,5.5c0.5-7.8,0.1-18.5-6.2-20.5c-3.5,6.3-17.4,10.4-26.5,8.1
					c0.7,7.2-1.4,13.1-3.8,14.6c0.1-5.8,0.1-9.3-3.5-8.1c-1-12.1,5.6-27.4,23.5-27.4C91.4,35.7,97.3,47.8,95.4,63.5z"/>
			</g>
		</g>
	</g>
</g>
</svg>
