<?xml version="1.0" encoding="utf-8"?>
<!-- Generator: Adobe Illustrator 23.0.1, SVG Export Plug-In . SVG Version: 6.00 Build 0)  -->
<svg version="1.1" id="Layer_1" xmlns="http://www.w3.org/2000/svg" xmlns:xlink="http://www.w3.org/1999/xlink" x="0px" y="0px"
	 viewBox="0 0 77.1 77.1" style="enable-background:new 0 0 77.1 77.1;" xml:space="preserve">
<style type="text/css">
	.st0{fill:#FFFFFF;}
</style>
<title>compass</title>
<circle class="st0" cx="38.5" cy="38.5" r="38.5"/>
<g>
	<path d="M38.5,10.1c-15.7,0-28.4,12.7-28.4,28.4s12.7,28.4,28.4,28.4c15.7,0,28.4-12.7,28.4-28.4C66.9,22.9,54.2,10.2,38.5,10.1z
		 M39.9,64.1v-3.9c0-0.8-0.6-1.4-1.4-1.4c-0.8,0-1.4,0.6-1.4,1.4v3.9C24.1,63.4,13.7,53,13,39.9h3.9c0.8,0,1.4-0.6,1.4-1.4
		c0-0.8-0.6-1.4-1.4-1.4H13c0.7-13,11.1-23.5,24.2-24.2v3.9c0,0.8,0.6,1.4,1.4,1.4c0.8,0,1.4-0.6,1.4-1.4V13
		c13,0.7,23.5,11.1,24.2,24.2h-3.9c-0.8,0-1.4,0.6-1.4,1.4c0,0.8,0.6,1.4,1.4,1.4h3.9C63.4,53,53,63.4,39.9,64.1z"/>
	<path d="M48.3,28.1c-0.3-0.1-0.7-0.1-1,0l0,0l-22.6,9c-0.7,0.3-1.1,1.1-0.8,1.8c0.1,0.4,0.4,0.6,0.8,0.8l9.3,3.5l3.5,9.4
		c0.2,0.5,0.7,0.9,1.3,0.9c0.6,0,1.1-0.4,1.3-0.9l9-22.7C49.3,29.2,49,28.4,48.3,28.1z"/>
	<path d="M63.5,13.5c-13.8-13.8-36.2-13.8-50,0c-13.8,13.8-13.8,36.2,0,50c13.8,13.8,36.2,13.8,50,0c6.6-6.6,10.3-15.6,10.3-25
		C73.9,29.2,70.2,20.2,63.5,13.5z M61.5,61.5c-12.7,12.7-33.4,12.7-46.1,0c-12.7-12.7-12.7-33.4,0-46.1c12.7-12.7,33.4-12.7,46.1,0
		c6.1,6.1,9.6,14.4,9.6,23.1C71.1,47.2,67.7,55.5,61.5,61.5z"/>
</g>
</svg>
