<svg id="Layer_1" data-name="Layer 1" xmlns="http://www.w3.org/2000/svg" viewBox="0 0 100 100"><defs><style>.cls-1{fill:#09134b;fill-rule:evenodd;}</style></defs><title>noun_Compass_1335229_000000</title><path class="cls-1" d="M50.29,63.66l-3.51-9.3a1.94,1.94,0,0,0-1.14-1.14l-9.3-3.51,23.11-9.16ZM62.23,35.23l-32,12.7a2,2,0,0,0,0,3.65l13.21,5,5,13.2a2,2,0,0,0,1.82,1.27h0a2,2,0,0,0,1.82-1.24l12.7-32a2,2,0,0,0-2.54-2.54ZM82.58,82.58A46.08,46.08,0,1,1,17.42,17.42,46.08,46.08,0,1,1,82.58,82.58m2.78-67.94A50,50,0,0,0,14.64,85.36,50,50,0,0,0,85.36,14.64M52,86.17V80.68a2,2,0,1,0-3.92,0v5.49A36.26,36.26,0,0,1,13.83,52h5.49a2,2,0,0,0,0-3.92H13.83A36.26,36.26,0,0,1,48,13.83v5.49a2,2,0,0,0,3.92,0V13.83A36.26,36.26,0,0,1,86.17,48H80.68a2,2,0,0,0,0,3.92h5.49A36.26,36.26,0,0,1,52,86.17M50,9.85A40.15,40.15,0,1,0,90.15,50,40.19,40.19,0,0,0,50,9.85" transform="translate(0 0)"/><polygon class="cls-1" points="32.68 50 61.87 38.28 50.78 66.69 46.78 54.36 32.68 50"/></svg>