<?xml version="1.0" encoding="utf-8"?>
<!-- Generator: Adobe Illustrator 23.0.1, SVG Export Plug-In . SVG Version: 6.00 Build 0)  -->
<svg version="1.1" id="Layer_1" xmlns="http://www.w3.org/2000/svg" xmlns:xlink="http://www.w3.org/1999/xlink" x="0px" y="0px"
	 viewBox="0 0 100 100" style="enable-background:new 0 0 100 100;" xml:space="preserve">
<style type="text/css">
	.st0{fill:#FFFFFF;}
	.st1{fill:#FFFFFF;stroke:#E2A334;stroke-width:2;stroke-miterlimit:10;}
</style>
<path class="st0" d="M72.4,21.9c-5.4-5.4-12.7-8.4-20.4-8.4c-7.6,0-15,3-20.4,8.4c-5.4,5.4-8.4,12.7-8.4,20.4c0,7.6,3,15,8.4,20.4
	c5.4,5.4,12.7,8.4,20.4,8.4c7.6,0,15-3,20.4-8.4c5.4-5.4,8.4-12.7,8.4-20.4C80.9,34.6,77.8,27.3,72.4,21.9z"/>
<path class="st1" d="M78.4,15.9c-14.5-14.5-38.2-14.5-52.7,0l0,0c-14.5,14.5-14.5,38.2,0,52.7c0.2,0.2,0.3,0.3,0.5,0.5
	c0,0-0.1-0.1-0.1-0.1l0,0l26,26L78,69.1l0,0c0.1-0.1,0.3-0.3,0.4-0.4C93,54.1,93,30.4,78.4,15.9z M75.5,65.7
	c-12.9,12.9-33.9,12.9-46.8,0c-12.9-12.9-12.9-33.9,0-46.8l0,0c12.9-12.9,33.9-12.9,46.8,0C88.4,31.8,88.4,52.7,75.5,65.7z"/>
</svg>
