<?xml version="1.0" encoding="utf-8"?>
<!-- Generator: Adobe Illustrator 23.0.1, SVG Export Plug-In . SVG Version: 6.00 Build 0)  -->
<svg version="1.1" id="Layer_1" xmlns="http://www.w3.org/2000/svg" xmlns:xlink="http://www.w3.org/1999/xlink" x="0px" y="0px"
	 viewBox="0 0 100 100" style="enable-background:new 0 0 100 100;" xml:space="preserve">
<style type="text/css">
	.st0{fill:#CE3A3A;}
	.st1{fill:#CE3A3A;stroke:#FFFFFF;stroke-width:5;stroke-miterlimit:10;}
	.st2{fill:#FFFFFF;}
</style>
<path class="st0" d="M77.14,17.16C70.57,10.44,61.57,6.73,52,6.73c-9.43,0-18.57,3.71-25.14,10.43S16.43,32.87,16.43,42.3
	s3.71,18.57,10.43,25.14S42.57,77.87,52,77.87s18.57-3.71,25.14-10.43c6.71-6.71,10.43-15.72,10.43-25.14
	C87.72,32.73,83.86,23.73,77.14,17.16z"/>
<path class="st1" d="M78.4,15.9c-14.5-14.5-38.2-14.5-52.7,0l0,0c-14.5,14.5-14.5,38.2,0,52.7c0.2,0.2,0.3,0.3,0.5,0.5L26.1,69l0,0
	l26,26L78,69.1l0,0c0.1-0.1,0.3-0.3,0.4-0.4C93,54.1,93,30.4,78.4,15.9z M75.5,65.7c-12.9,12.9-33.9,12.9-46.8,0s-12.9-33.9,0-46.8
	l0,0C41.6,6,62.6,6,75.5,18.9S88.4,52.7,75.5,65.7z"/>
<circle class="st2" cx="52" cy="42.3" r="7.7"/>
</svg>
