<?xml version="1.0" encoding="utf-8"?>
<!-- Generator: Adobe Illustrator 23.0.1, SVG Export Plug-In . SVG Version: 6.00 Build 0)  -->
<svg version="1.1" id="Layer_5" xmlns="http://www.w3.org/2000/svg" xmlns:xlink="http://www.w3.org/1999/xlink" x="0px" y="0px"
	 viewBox="0 0 3079.16 1076.99" style="enable-background:new 0 0 3079.16 1076.99;" xml:space="preserve">
<style type="text/css">
	.st0{clip-path:url(#SVGID_2_);}
	.st1{fill:#09134B;}
	.st2{fill:#6A87EA;}
	.st3{fill:#F4487B;}
	.st4{fill:#0930B4;}
</style>
<title>backgrounds</title>
<g>
	<defs>
		<rect id="SVGID_1_" y="-0.46" width="3083" height="1076.6"/>
	</defs>
	<clipPath id="SVGID_2_">
		<use xlink:href="#SVGID_1_"  style="overflow:visible;"/>
	</clipPath>
	<g class="st0">
		<rect class="st1" width="3083" height="1076.99"/>
		<path class="st2" d="M1966.94-1083.69c235.81,27.38,573,55.71,754.18,213.71s206.4,445.19,115,697.32
			c-90.86,252.12-297.79,468.71-546.2,557.08c-247.9,88.84-536.75,49.94-799.87,16.81c-263.13-32.66-499.46-60-732.12-153.2
			C525.81,154.38,297.88-5.54,274.77-196.68c-23.11-190.65,158.61-413,283.6-616.63c125.52-203.62,194.32-389,335.6-444.7
			c141.8-55.71,355.56,18.73,529.92,69.15C1597.73-1138.43,1731.13-1111.54,1966.94-1083.69z"/>
		<path class="st3" d="M2871.13,468.03c153.35-181.19,363.62-446.31,595.51-509.73s485,74.59,644.37,290.28
			c159.66,215.26,225.46,507.48,161.52,763.26c-63.26,255.62-255.57,474.63-428.84,675.4c-172.87,201-326.51,382.69-532.91,524.86
			c-206.51,141.47-465.87,242.74-637.84,156.17c-171.56-86.32-256.12-360.75-356.49-577.57
			c-100.07-217.26-216.36-377.19-184.53-525.68c32.12-148.93,212.45-285.72,351-403C2621.13,745.19,2717.38,648.99,2871.13,468.03z"
			/>
		<path class="st4" d="M1220.2,1130.84c190.3,141.92,467.83,335.48,545.38,563s-44.62,488.67-250.1,661
			c-205,172.59-492.66,256.24-751.9,208.15c-259-47.42-489.45-225.91-700.5-386.5c-211.28-160.18-402-302.36-556.63-499.63
			c-153.9-197.41-270.93-450.06-195.1-627c75.6-176.55,344.31-277.83,554.56-391.34C76.6,545.3,229.07,419.4,379.24,442.04
			c150.62,22.89,298.25,194.47,423.83,325.52C928.2,898.35,1030.13,988.51,1220.2,1130.84z"/>
	</g>
</g>
</svg>
